<svg width="30" height="20" viewBox="0 0 30 20" fill="none" xmlns="http://www.w3.org/2000/svg">
<g clip-path="url(#clip0_5355_168071)">
<path d="M0 0H30V20H0V0Z" fill="#10338C"/>
<path d="M12.9949 9.98235C13.0125 9.9648 13.0242 9.94726 13.0417 9.92972C13.03 9.94726 13.0125 9.9648 12.9949 9.98235ZM10.9949 12.4326L11.6382 13.7718L13.0826 13.4385L12.4394 14.7718L13.6031 15.6958L12.1528 16.0233L12.1587 17.5087L10.9949 16.5788L9.83702 17.5087L9.84287 16.0233L8.39258 15.6958L9.55632 14.7718L8.9072 13.4385L10.3575 13.7718L10.9949 12.4326ZM22.568 14.0993L22.8721 14.7367L23.5622 14.5788L23.2522 15.2163L23.8078 15.6549L23.1177 15.8069V16.5204L22.568 16.0759L22.0125 16.5204L22.0183 15.8069L21.3283 15.6549L21.8838 15.2163L21.5739 14.5788L22.2639 14.7367L22.568 14.0993ZM19.7259 7.31568L20.03 7.95311L20.7201 7.79521L20.4101 8.43264L20.9657 8.87124L20.2756 9.02913V9.73673L19.7259 9.29229L19.1704 9.73673L19.1762 9.02913L18.4803 8.87124L19.0359 8.43264L18.7259 7.79521L19.416 7.95311L19.7259 7.31568ZM22.568 3.44434L22.8721 4.08176L23.5622 3.92387L23.2522 4.56129L23.8078 4.99989L23.1177 5.15779V5.86539L22.568 5.42094L22.0125 5.86539L22.0183 5.15779L21.3283 4.99989L21.8838 4.56129L21.5739 3.92387L22.2639 4.08176L22.568 3.44434ZM25.0534 6.35077L25.3575 6.9882L26.0475 6.8303L25.7376 7.46773L26.2932 7.90632L25.6031 8.05837V8.77182L25.0534 8.32738L24.4978 8.77182V8.05837L23.8078 7.90632L24.3633 7.46773L24.0534 6.8303L24.7435 6.9882L25.0534 6.35077ZM23.2756 9.73673L23.5154 10.4794H24.2932L23.6616 10.9356L23.9072 11.6783L23.2756 11.2163L22.644 11.6783L22.8838 10.9356L22.2581 10.4794H23.0359L23.2756 9.73673Z" fill="white"/>
<path d="M14.9004 0V1.78947L12.263 3.25731H14.9004V6.72515H11.4443L14.9004 8.64328V9.98246H13.339L9.0408 7.59064V9.98246H5.78934V7.14035L0.678226 9.98246H-0.0703125V8.19298L2.57296 6.72515H-0.0703125V3.25731H3.38583L-0.0703125 1.33333V0H1.49109L5.78934 2.38596V0H9.0408V2.84211L14.1578 0H14.9004Z" fill="white"/>
<path d="M8.35074 0H6.4794V4.05263H-0.0703125V5.92398H6.4794V9.98246H8.35074V5.92398H14.9004V4.05263H8.35074V0Z" fill="#D80027"/>
<path d="M9.04102 6.7251L14.9007 9.98241V9.05843L10.7018 6.7251H9.04102Z" fill="#0052B4"/>
<path d="M9.04102 6.7251L14.9007 9.98241V9.05843L10.7018 6.7251H9.04102Z" fill="white"/>
<path d="M9.0408 6.7251L14.9004 9.98241V9.05843L10.7016 6.7251H9.0408ZM4.13437 6.7251L-0.0703125 9.05843V9.98241L5.78934 6.7251H4.13437Z" fill="#D80027"/>
<path d="M5.78934 3.25731L-0.0703125 0V0.918129L4.13437 3.25731H5.78934Z" fill="#0052B4"/>
<path d="M5.78934 3.25731L-0.0703125 0V0.918129L4.13437 3.25731H5.78934Z" fill="white"/>
<path d="M5.78934 3.25731L-0.0703125 0V0.918129L4.13437 3.25731H5.78934ZM10.7016 3.25731L14.9004 0.918129V0L9.0408 3.25731H10.7016Z" fill="#D80027"/>
</g>
<defs>
<clipPath id="clip0_5355_168071">
<rect width="30" height="20" rx="4" fill="white"/>
</clipPath>
</defs>
</svg>
