<svg width="30" height="20" viewBox="0 0 30 20" fill="none" xmlns="http://www.w3.org/2000/svg">
<g clip-path="url(#clip0_38314_466657)">
<path d="M0 4C0 1.79086 1.79086 0 4 0H26C28.2091 0 30 1.79086 30 4V15.9996C30 18.2087 28.2091 19.9996 26 19.9996H4C1.79086 19.9996 0 18.2087 0 15.9996V4Z" fill="white"/>
<path d="M0 0H30V9.99979H0V0Z" fill="#D80027"/>
<path d="M4.89121 4.99999C4.89121 3.54306 5.9152 2.32595 7.28254 2.02729C7.06833 1.98033 6.84969 1.9566 6.63039 1.95651C4.94945 1.95651 3.58691 3.31905 3.58691 4.99993C3.58691 6.68081 4.94951 8.04341 6.63039 8.04341C6.85434 8.04341 7.07236 8.01851 7.28254 7.97263C5.9152 7.6741 4.89121 6.45699 4.89121 4.99999ZM8.80428 2.17395L9.02014 2.83823H9.71863L9.1535 3.2488L9.36936 3.91308L8.80428 3.50257L8.23914 3.91308L8.45506 3.2488L7.88992 2.83823H8.58842L8.80428 2.17395Z" fill="white"/>
<path d="M7.10967 3.47849L7.32547 4.14276H8.02396L7.45883 4.55333L7.67469 5.21761L7.10967 4.8071L6.54453 5.21761L6.76045 4.55333L6.19531 4.14276H6.89381L7.10967 3.47849ZM10.4984 3.47849L10.7142 4.14276H11.4127L10.8476 4.55333L11.0635 5.21761L10.4984 4.8071L9.9333 5.21761L10.1492 4.55333L9.58408 4.14276H10.2826L10.4984 3.47849ZM9.84617 5.43499L10.062 6.09927H10.7605L10.1954 6.50984L10.4113 7.17411L9.84617 6.76361L9.28115 7.17411L9.49701 6.50984L8.93193 6.09927H9.63037L9.84617 5.43499ZM7.76182 5.43499L7.97762 6.09927H8.67611L8.11104 6.50984L8.32689 7.17411L7.76182 6.76361L7.19674 7.17411L7.4126 6.50984L6.84752 6.09927H7.54596L7.76182 5.43499Z" fill="white"/>
<path d="M4 0.5H26C27.933 0.5 29.5 2.067 29.5 4V15.9996C29.5 17.9326 27.933 19.4996 26 19.4996H4C2.067 19.4996 0.5 17.9326 0.5 15.9996V4C0.5 2.06701 2.067 0.5 4 0.5Z" stroke="black" stroke-opacity="0.1"/>
</g>
<defs>
<clipPath id="clip0_38314_466657">
<rect width="30" height="20" rx="4" fill="white"/>
</clipPath>
</defs>
</svg>
