<svg width="30" height="20" viewBox="0 0 30 20" fill="none" xmlns="http://www.w3.org/2000/svg">
<g clip-path="url(#clip0_5355_168115)">
<path d="M0 4C0 1.79086 1.79086 0 4 0H26C28.2091 0 30 1.79086 30 4V16.0002C30 18.2094 28.2091 20.0002 26 20.0002H4C1.79086 20.0002 0 18.2094 0 16.0002V4Z" fill="white"/>
<path d="M4 0.5H26C27.933 0.5 29.5 2.067 29.5 4V16.0002C29.5 17.9332 27.933 19.5002 26 19.5002H4C2.067 19.5002 0.5 17.9332 0.5 16.0002V4C0.5 2.067 2.067 0.5 4 0.5Z" stroke="black" stroke-opacity="0.1"/>
<path d="M15 15.6245C18.1066 15.6245 20.625 13.1061 20.625 9.99952C20.625 6.89291 18.1066 4.37451 15 4.37451C11.8934 4.37451 9.375 6.89291 9.375 9.99952C9.375 13.1061 11.8934 15.6245 15 15.6245Z" fill="#D80027"/>
</g>
<defs>
<clipPath id="clip0_5355_168115">
<rect width="30" height="20" rx="4" fill="white"/>
</clipPath>
</defs>
</svg>
